<svg width="250" height="65" viewBox="0 0 250 65" fill="none" xmlns="http://www.w3.org/2000/svg">
<path d="M22.6592 49.38C20.9792 50.0333 19.0892 50.4067 16.9892 50.5C12.6492 50.6867 9.05588 49.5433 6.20922 47.07C3.78255 45.0633 2.21922 42.5667 1.51922 39.58C0.819216 36.5933 0.795882 33.91 1.44922 31.53C2.10255 29.15 3.10588 26.8167 4.45922 24.53C6.18588 21.5433 8.23922 19.07 10.6192 17.11C13.0459 15.15 15.6825 13.9367 18.5292 13.47C21.4225 13.0033 24.4792 13.5633 27.6992 15.15C28.0725 15.3367 28.4692 15.6167 28.8892 15.99C29.3559 16.3633 29.7526 16.69 30.0792 16.97L30.9892 17.88C31.2692 18.16 31.4092 18.3233 31.4092 18.37C32.1559 19.0233 32.5526 19.8633 32.5992 20.89C33.2059 23.69 33.6026 26.63 33.7892 29.71C33.8826 31.25 33.9292 33.0933 33.9292 35.24C33.9292 37.34 33.9292 39.4633 33.9292 41.61C33.9759 43.71 34.0225 45.5067 34.0692 47C34.1159 48.12 33.7892 48.9833 33.0892 49.59C32.4359 50.1967 31.6426 50.5 30.7092 50.5C29.8226 50.5467 29.0059 50.3133 28.2592 49.8C27.5125 49.24 27.1159 48.4 27.0692 47.28V46.23C25.6692 47.6767 24.1992 48.7267 22.6592 49.38ZM19.5092 43.08C20.3492 42.8467 21.4925 42.3567 22.9392 41.61C24.3859 40.8633 25.6226 39.72 26.6492 38.18C26.7425 38.0867 26.8592 37.9933 26.9992 37.9C26.9992 31.6 26.6026 26.5367 25.8092 22.71C25.3892 22.15 24.8992 21.6833 24.3392 21.31C22.0992 20.0967 19.7425 20.0733 17.2692 21.24C14.7959 22.36 12.6259 24.4833 10.7592 27.61C7.07255 33.8633 7.04922 38.5767 10.6892 41.75C11.7625 42.6367 13.0925 43.1967 14.6792 43.43C16.2659 43.6633 17.8759 43.5467 19.5092 43.08ZM64.4077 49.38C59.5077 43.8733 55.3777 38.74 52.0177 33.98L46.1377 40.14L46.0677 40.28C46.2543 42.4267 46.4877 44.5967 46.7677 46.79C46.9543 47.91 46.7443 48.82 46.1377 49.52C45.531 50.1733 44.761 50.5467 43.8277 50.64C42.941 50.78 42.101 50.64 41.3077 50.22C40.561 49.7533 40.0943 48.9367 39.9077 47.77C39.5343 45.1567 39.2543 42.4967 39.0677 39.79C38.881 36.99 38.7877 34.8433 38.7877 33.35C38.741 31.67 38.7177 29.85 38.7177 27.89C38.7177 25.8833 38.7177 23.9233 38.7177 22.01C38.7643 20.05 38.7877 18.3 38.7877 16.76C38.7877 15.5933 39.1377 14.73 39.8377 14.17C40.5377 13.5633 41.3543 13.26 42.2877 13.26C43.221 13.26 44.0377 13.5633 44.7377 14.17C45.4377 14.73 45.7877 15.5933 45.7877 16.76C45.7877 18.2067 45.7877 20.5867 45.7877 23.9C45.741 27.26 45.7177 29.5933 45.7177 30.9C55.2843 21.94 60.791 16.76 62.2377 15.36C63.031 14.52 63.871 14.1467 64.7577 14.24C65.691 14.3333 66.4843 14.7067 67.1377 15.36C67.791 16.0133 68.1643 16.8067 68.2577 17.74C68.351 18.6267 67.9777 19.4667 67.1377 20.26C64.8977 22.5467 61.631 25.5567 57.3377 29.29C60.6043 34.05 64.6877 39.2067 69.5877 44.76C70.381 45.6 70.7077 46.4633 70.5677 47.35C70.4277 48.2367 70.0077 49.0067 69.3077 49.66C68.6077 50.2667 67.791 50.5933 66.8577 50.64C65.971 50.6867 65.1543 50.2667 64.4077 49.38ZM73.7335 50.15C72.4735 49.31 71.9835 48.1433 72.2635 46.65C72.2168 46.5567 72.1935 46.4633 72.1935 46.37C72.0535 44.8767 71.9368 43.2433 71.8435 41.47C71.7968 39.65 71.7502 37.9467 71.7035 36.36C71.7035 34.7267 71.7268 33.4433 71.7735 32.51C71.7735 31.95 71.7968 31.0867 71.8435 29.92C71.9368 28.7533 72.0068 27.47 72.0535 26.07C72.1468 24.6233 72.2168 23.2233 72.2635 21.87C72.3102 20.47 72.3568 19.3033 72.4035 18.37C72.4968 17.39 72.5435 16.7833 72.5435 16.55C72.5902 15.5233 72.9635 14.73 73.6635 14.17C74.4102 13.5633 75.2502 13.26 76.1835 13.26C77.1168 13.26 77.9335 13.6333 78.6335 14.38C78.9602 14.7533 79.1702 15.71 79.2635 17.25C79.3568 18.7433 79.3802 20.5167 79.3335 22.57C79.3335 24.6233 79.2635 26.7 79.1235 28.8C79.0302 30.8533 78.9368 32.6733 78.8435 34.26C78.7502 35.8 78.7035 36.78 78.7035 37.2L83.6735 30.83C88.0602 25.09 91.3968 19.8867 93.6835 15.22C94.2902 14.24 95.1768 13.68 96.3435 13.54C96.7168 13.4 97.1135 13.3067 97.5335 13.26C98.5135 13.2133 99.3535 13.5167 100.054 14.17C100.8 14.7767 101.197 15.57 101.244 16.55C101.43 21.1233 101.5 26.49 101.454 32.65C101.314 39.2767 101.314 44.06 101.454 47C101.5 48.1667 101.174 49.0533 100.474 49.66C99.8202 50.2667 99.0268 50.57 98.0935 50.57C97.2068 50.6167 96.3902 50.3833 95.6435 49.87C94.8968 49.31 94.5002 48.4467 94.4535 47.28C94.3135 44.2933 94.3135 39.3933 94.4535 32.58V28.03L89.2035 35.1C83.7435 42.1933 80.1968 46.9067 78.5635 49.24C78.0035 50.0333 77.2568 50.5233 76.3235 50.71C75.3902 50.8967 74.5268 50.71 73.7335 50.15ZM108.007 61.21C107.82 58.0367 107.68 54.84 107.587 51.62C107.54 49.24 107.493 46.7433 107.447 44.13C107.4 41.5167 107.353 39.02 107.307 36.64C107.307 34.26 107.283 32.23 107.237 30.55C106.537 30.0367 106.093 29.3367 105.907 28.45C105.72 27.5167 105.86 26.6767 106.327 25.93L107.097 24.74C107.003 22.5467 106.91 20.47 106.817 18.51C106.77 17.53 107.073 16.69 107.727 15.99C108.38 15.2433 109.173 14.8467 110.107 14.8C110.947 14.7533 111.693 14.9867 112.347 15.5C113.047 16.0133 113.513 16.6667 113.747 17.46C114.213 17.0867 114.703 16.7367 115.217 16.41C118.11 14.45 120.957 13.4233 123.757 13.33C126.603 13.19 129.123 13.89 131.317 15.43C133.323 16.7833 134.98 18.6033 136.287 20.89C137.593 23.13 138.503 25.6033 139.017 28.31C140.183 34.1433 139.577 39.2067 137.197 43.5C135.797 46.02 133.883 47.9567 131.457 49.31C129.077 50.6633 126.253 51.2233 122.987 50.99C121.727 50.8967 120.677 50.7567 119.837 50.57C118.997 50.43 118.18 50.1967 117.387 49.87C116.64 49.5433 115.73 49.0767 114.657 48.47L114.517 48.4C114.61 52.9733 114.773 57.1033 115.007 60.79C115.053 61.9567 114.727 62.8433 114.027 63.45C113.373 64.0567 112.58 64.3833 111.647 64.43C110.76 64.5233 109.943 64.29 109.197 63.73C108.45 63.2167 108.053 62.3767 108.007 61.21ZM123.407 43.99C126.953 44.2233 129.497 42.94 131.037 40.14C132.577 37.2933 132.95 33.8167 132.157 29.71C131.783 27.7967 131.153 26.0933 130.267 24.6C129.427 23.1067 128.47 21.9867 127.397 21.24C125.11 19.7 122.357 20.0033 119.137 22.15C117.223 23.4567 115.567 25.0433 114.167 26.91L114.377 38.95C115.31 40.21 115.8 40.8633 115.847 40.91C116.08 41.19 116.85 41.7033 118.157 42.45C118.903 42.87 119.487 43.1733 119.907 43.36C120.373 43.5467 120.84 43.6867 121.307 43.78C121.82 43.8733 122.52 43.9433 123.407 43.99ZM155.391 47.14C155.391 48.3067 155.041 49.17 154.341 49.73C153.641 50.29 152.825 50.5467 151.891 50.5C150.958 50.5 150.141 50.1967 149.441 49.59C148.741 48.9833 148.391 48.12 148.391 47C148.625 34.8667 148.625 26.07 148.391 20.61C147.645 20.61 146.338 20.5867 144.471 20.54C142.558 20.4933 141.088 20.47 140.061 20.47C138.895 20.47 138.031 20.12 137.471 19.42C136.911 18.72 136.631 17.9033 136.631 16.97C136.678 16.0367 137.005 15.22 137.611 14.52C138.218 13.82 139.081 13.47 140.201 13.47C152.615 13.7033 160.595 13.75 164.141 13.61C165.308 13.5633 166.195 13.89 166.801 14.59C167.408 15.2433 167.711 16.0367 167.711 16.97C167.758 17.8567 167.501 18.6733 166.941 19.42C166.428 20.1667 165.588 20.5633 164.421 20.61C161.715 20.7033 158.705 20.75 155.391 20.75C155.625 26.3033 155.625 35.1 155.391 47.14ZM197.31 44.97C195.304 47.07 192.97 48.5867 190.31 49.52C187.697 50.4533 185.037 50.8033 182.33 50.57C179.624 50.3833 177.15 49.5667 174.91 48.12C172.577 46.72 170.64 44.9467 169.1 42.8C167.607 40.6067 166.674 38.1567 166.3 35.45C165.974 32.6967 166.394 29.7567 167.56 26.63C168.68 23.5033 170.244 20.89 172.25 18.79C174.304 16.69 176.614 15.15 179.18 14.17C181.747 13.19 184.36 12.8633 187.02 13.19C189.774 13.5167 192.224 14.4967 194.37 16.13C196.564 17.7633 198.29 19.91 199.55 22.57C200.81 25.23 201.44 28.31 201.44 31.81C201.44 33.1167 200.88 34.12 199.76 34.82C199.06 35.3333 198.267 35.5433 197.38 35.45C191.594 34.8433 183.73 34.7967 173.79 35.31H173.65C174.07 37.3633 174.957 39.09 176.31 40.49C177.664 41.8433 179.274 42.7767 181.14 43.29C183.054 43.8033 184.99 43.8267 186.95 43.36C188.91 42.8467 190.684 41.75 192.27 40.07C193.064 39.2767 193.904 38.9267 194.79 39.02C195.724 39.0667 196.517 39.4167 197.17 40.07C197.824 40.6767 198.197 41.4467 198.29 42.38C198.43 43.2667 198.104 44.13 197.31 44.97ZM174.42 28.24C182.4 27.8667 188.957 27.8433 194.09 28.17C193.577 25.7433 192.574 23.8533 191.08 22.5C189.634 21.1467 188 20.3767 186.18 20.19C183.94 19.91 181.724 20.4467 179.53 21.8C177.337 23.1533 175.634 25.3 174.42 28.24ZM218.495 47.14C218.495 48.3067 218.145 49.17 217.445 49.73C216.745 50.29 215.928 50.5467 214.995 50.5C214.062 50.5 213.245 50.1967 212.545 49.59C211.845 48.9833 211.495 48.12 211.495 47C211.728 34.8667 211.728 26.07 211.495 20.61C210.748 20.61 209.442 20.5867 207.575 20.54C205.662 20.4933 204.192 20.47 203.165 20.47C201.998 20.47 201.135 20.12 200.575 19.42C200.015 18.72 199.735 17.9033 199.735 16.97C199.782 16.0367 200.108 15.22 200.715 14.52C201.322 13.82 202.185 13.47 203.305 13.47C215.718 13.7033 223.698 13.75 227.245 13.61C228.412 13.5633 229.298 13.89 229.905 14.59C230.512 15.2433 230.815 16.0367 230.815 16.97C230.862 17.8567 230.605 18.6733 230.045 19.42C229.532 20.1667 228.692 20.5633 227.525 20.61C224.818 20.7033 221.808 20.75 218.495 20.75C218.728 26.3033 218.728 35.1 218.495 47.14ZM237.034 62.61C236.334 63.45 235.494 63.8933 234.514 63.94C233.581 63.9867 232.718 63.7767 231.924 63.31C231.131 62.89 230.618 62.2833 230.384 61.49C230.151 60.7433 230.408 59.95 231.154 59.11C238.154 51.13 241.818 42.1233 242.144 32.09C242.471 21.73 239.344 12.7233 232.764 5.07C232.064 4.23 231.831 3.43666 232.064 2.69C232.298 1.94333 232.811 1.33666 233.604 0.869996C234.398 0.40333 235.261 0.216665 236.194 0.309999C237.174 0.356666 237.991 0.799999 238.644 1.64C246.018 10.4133 249.518 20.6567 249.144 32.37C248.771 43.6167 244.734 53.6967 237.034 62.61Z" fill="#1E56A0"/>
</svg>
