<svg width="297" height="68" viewBox="0 0 297 68" fill="none" xmlns="http://www.w3.org/2000/svg">
<path d="M28.6325 47.56C26.4725 48.4 24.0425 48.88 21.3425 49C15.7625 49.24 11.1425 47.77 7.4825 44.59C4.3625 42.01 2.3525 38.8 1.4525 34.96C0.552497 31.12 0.522497 27.67 1.3625 24.61C2.2025 21.55 3.4925 18.55 5.2325 15.61C7.4525 11.77 10.0925 8.59 13.1525 6.07C16.2725 3.55 19.6625 1.99 23.3225 1.39C27.0425 0.789997 30.9725 1.51 35.1125 3.55C35.5925 3.79 36.1025 4.15 36.6425 4.63C37.2425 5.11 37.7525 5.53 38.1725 5.89L39.3425 7.06C39.7025 7.42 39.8825 7.63 39.8825 7.69C40.8425 8.53 41.3525 9.61 41.4125 10.93C42.1925 14.53 42.7025 18.31 42.9425 22.27C43.0625 24.25 43.1225 26.62 43.1225 29.38C43.1225 32.08 43.1225 34.81 43.1225 37.57C43.1825 40.27 43.2425 42.58 43.3025 44.5C43.3625 45.94 42.9425 47.05 42.0425 47.83C41.2025 48.61 40.1825 49 38.9825 49C37.8425 49.06 36.7925 48.76 35.8325 48.1C34.8725 47.38 34.3625 46.3 34.3025 44.86V43.51C32.5025 45.37 30.6125 46.72 28.6325 47.56ZM24.5825 39.46C25.6625 39.16 27.1325 38.53 28.9925 37.57C30.8525 36.61 32.4425 35.14 33.7625 33.16C33.8825 33.04 34.0325 32.92 34.2125 32.8C34.2125 24.7 33.7025 18.19 32.6825 13.27C32.1425 12.55 31.5125 11.95 30.7925 11.47C27.9125 9.91 24.8825 9.88 21.7025 11.38C18.5225 12.82 15.7325 15.55 13.3325 19.57C8.5925 27.61 8.5625 33.67 13.2425 37.75C14.6225 38.89 16.3325 39.61 18.3725 39.91C20.4125 40.21 22.4825 40.06 24.5825 39.46ZM82.3091 47.56C76.0091 40.48 70.6991 33.88 66.3791 27.76L58.8191 35.68L58.7291 35.86C58.9691 38.62 59.2691 41.41 59.6291 44.23C59.8691 45.67 59.5991 46.84 58.8191 47.74C58.0391 48.58 57.0491 49.06 55.8491 49.18C54.7091 49.36 53.6291 49.18 52.6091 48.64C51.6491 48.04 51.0491 46.99 50.8091 45.49C50.3291 42.13 49.9691 38.71 49.7291 35.23C49.4891 31.63 49.3691 28.87 49.3691 26.95C49.3091 24.79 49.2791 22.45 49.2791 19.93C49.2791 17.35 49.2791 14.83 49.2791 12.37C49.3391 9.85 49.3691 7.6 49.3691 5.62C49.3691 4.12 49.8191 3.01 50.7191 2.29C51.6191 1.51 52.6691 1.12 53.8691 1.12C55.0691 1.12 56.1191 1.51 57.0191 2.29C57.9191 3.01 58.3691 4.12 58.3691 5.62C58.3691 7.48 58.3691 10.54 58.3691 14.8C58.3091 19.12 58.2791 22.12 58.2791 23.8C70.5791 12.28 77.6591 5.62 79.5191 3.82C80.5391 2.74 81.6191 2.26 82.7591 2.38C83.9591 2.5 84.9791 2.98 85.8191 3.82C86.6591 4.66 87.1391 5.68 87.2591 6.88C87.3791 8.02 86.8991 9.1 85.8191 10.12C82.9391 13.06 78.7391 16.93 73.2191 21.73C77.4191 27.85 82.6691 34.48 88.9691 41.62C89.9891 42.7 90.4091 43.81 90.2291 44.95C90.0491 46.09 89.5091 47.08 88.6091 47.92C87.7091 48.7 86.6591 49.12 85.4591 49.18C84.3191 49.24 83.2691 48.7 82.3091 47.56ZM94.2994 48.55C92.6794 47.47 92.0494 45.97 92.4094 44.05C92.3494 43.93 92.3194 43.81 92.3194 43.69C92.1394 41.77 91.9894 39.67 91.8694 37.39C91.8094 35.05 91.7494 32.86 91.6894 30.82C91.6894 28.72 91.7194 27.07 91.7794 25.87C91.7794 25.15 91.8094 24.04 91.8694 22.54C91.9894 21.04 92.0794 19.39 92.1394 17.59C92.2594 15.73 92.3494 13.93 92.4094 12.19C92.4694 10.39 92.5294 8.89 92.5894 7.69C92.7094 6.43 92.7694 5.65 92.7694 5.35C92.8294 4.03 93.3094 3.01 94.2094 2.29C95.1694 1.51 96.2494 1.12 97.4494 1.12C98.6494 1.12 99.6994 1.6 100.599 2.56C101.019 3.04 101.289 4.27 101.409 6.25C101.529 8.17 101.559 10.45 101.499 13.09C101.499 15.73 101.409 18.4 101.229 21.1C101.109 23.74 100.989 26.08 100.869 28.12C100.749 30.1 100.689 31.36 100.689 31.9L107.079 23.71C112.719 16.33 117.009 9.64 119.949 3.64C120.729 2.38 121.869 1.66 123.369 1.48C123.849 1.3 124.359 1.18 124.899 1.12C126.159 1.06 127.239 1.45 128.139 2.29C129.099 3.07 129.609 4.09 129.669 5.35C129.909 11.23 129.999 18.13 129.939 26.05C129.759 34.57 129.759 40.72 129.939 44.5C129.999 46 129.579 47.14 128.679 47.92C127.839 48.7 126.819 49.09 125.619 49.09C124.479 49.15 123.429 48.85 122.469 48.19C121.509 47.47 120.999 46.36 120.939 44.86C120.759 41.02 120.759 34.72 120.939 25.96V20.11L114.189 29.2C107.169 38.32 102.609 44.38 100.509 47.38C99.7894 48.4 98.8294 49.03 97.6294 49.27C96.4294 49.51 95.3194 49.27 94.2994 48.55ZM138.365 62.77C138.125 58.69 137.945 54.58 137.825 50.44C137.765 47.38 137.705 44.17 137.645 40.81C137.585 37.45 137.525 34.24 137.465 31.18C137.465 28.12 137.435 25.51 137.375 23.35C136.475 22.69 135.905 21.79 135.665 20.65C135.425 19.45 135.605 18.37 136.205 17.41L137.195 15.88C137.075 13.06 136.955 10.39 136.835 7.87C136.775 6.61 137.165 5.53 138.005 4.63C138.845 3.67 139.865 3.16 141.065 3.1C142.145 3.04 143.105 3.34 143.945 4C144.845 4.66 145.445 5.5 145.745 6.52C146.345 6.04 146.975 5.59 147.635 5.17C151.355 2.65 155.015 1.33 158.615 1.21C162.275 1.03 165.515 1.93 168.335 3.91C170.915 5.65 173.045 7.99 174.725 10.93C176.405 13.81 177.575 16.99 178.235 20.47C179.735 27.97 178.955 34.48 175.895 40C174.095 43.24 171.635 45.73 168.515 47.47C165.455 49.21 161.825 49.93 157.625 49.63C156.005 49.51 154.655 49.33 153.575 49.09C152.495 48.91 151.445 48.61 150.425 48.19C149.465 47.77 148.295 47.17 146.915 46.39L146.735 46.3C146.855 52.18 147.065 57.49 147.365 62.23C147.425 63.73 147.005 64.87 146.105 65.65C145.265 66.43 144.245 66.85 143.045 66.91C141.905 67.03 140.855 66.73 139.895 66.01C138.935 65.35 138.425 64.27 138.365 62.77ZM158.165 40.63C162.725 40.93 165.995 39.28 167.975 35.68C169.955 32.02 170.435 27.55 169.415 22.27C168.935 19.81 168.125 17.62 166.985 15.7C165.905 13.78 164.675 12.34 163.295 11.38C160.355 9.4 156.815 9.79 152.675 12.55C150.215 14.23 148.085 16.27 146.285 18.67L146.555 34.15C147.755 35.77 148.385 36.61 148.445 36.67C148.745 37.03 149.735 37.69 151.415 38.65C152.375 39.19 153.125 39.58 153.665 39.82C154.265 40.06 154.865 40.24 155.465 40.36C156.125 40.48 157.025 40.57 158.165 40.63ZM199.288 44.68C199.288 46.18 198.838 47.29 197.938 48.01C197.038 48.73 195.988 49.06 194.788 49C193.588 49 192.538 48.61 191.638 47.83C190.738 47.05 190.288 45.94 190.288 44.5C190.588 28.9 190.588 17.59 190.288 10.57C189.328 10.57 187.648 10.54 185.248 10.48C182.788 10.42 180.898 10.39 179.578 10.39C178.078 10.39 176.968 9.94 176.248 9.04C175.528 8.14 175.168 7.09 175.168 5.89C175.228 4.69 175.648 3.64 176.428 2.74C177.208 1.84 178.318 1.39 179.758 1.39C195.718 1.69 205.978 1.75 210.538 1.57C212.038 1.51 213.178 1.93 213.958 2.83C214.738 3.67 215.128 4.69 215.128 5.89C215.188 7.03 214.858 8.08 214.138 9.04C213.478 10 212.398 10.51 210.898 10.57C207.418 10.69 203.548 10.75 199.288 10.75C199.588 17.89 199.588 29.2 199.288 44.68ZM253.184 41.89C250.604 44.59 247.604 46.54 244.184 47.74C240.824 48.94 237.404 49.39 233.924 49.09C230.444 48.85 227.264 47.8 224.384 45.94C221.384 44.14 218.894 41.86 216.914 39.1C214.994 36.28 213.794 33.13 213.314 29.65C212.894 26.11 213.434 22.33 214.934 18.31C216.374 14.29 218.384 10.93 220.964 8.23C223.604 5.53 226.574 3.55 229.874 2.29C233.174 1.03 236.534 0.609997 239.954 1.03C243.494 1.45 246.644 2.71 249.404 4.81C252.224 6.91 254.444 9.67 256.064 13.09C257.684 16.51 258.494 20.47 258.494 24.97C258.494 26.65 257.774 27.94 256.334 28.84C255.434 29.5 254.414 29.77 253.274 29.65C245.834 28.87 235.724 28.81 222.944 29.47H222.764C223.304 32.11 224.444 34.33 226.184 36.13C227.924 37.87 229.994 39.07 232.394 39.73C234.854 40.39 237.344 40.42 239.864 39.82C242.384 39.16 244.664 37.75 246.704 35.59C247.724 34.57 248.804 34.12 249.944 34.24C251.144 34.3 252.164 34.75 253.004 35.59C253.844 36.37 254.324 37.36 254.444 38.56C254.624 39.7 254.204 40.81 253.184 41.89ZM223.754 20.38C234.014 19.9 242.444 19.87 249.044 20.29C248.384 17.17 247.094 14.74 245.174 13C243.314 11.26 241.214 10.27 238.874 10.03C235.994 9.67 233.144 10.36 230.324 12.1C227.504 13.84 225.314 16.6 223.754 20.38ZM280.422 44.68C280.422 46.18 279.972 47.29 279.072 48.01C278.172 48.73 277.122 49.06 275.922 49C274.722 49 273.672 48.61 272.772 47.83C271.872 47.05 271.422 45.94 271.422 44.5C271.722 28.9 271.722 17.59 271.422 10.57C270.462 10.57 268.782 10.54 266.382 10.48C263.922 10.42 262.032 10.39 260.712 10.39C259.212 10.39 258.102 9.94 257.382 9.04C256.662 8.14 256.302 7.09 256.302 5.89C256.362 4.69 256.782 3.64 257.562 2.74C258.342 1.84 259.452 1.39 260.892 1.39C276.852 1.69 287.112 1.75 291.672 1.57C293.172 1.51 294.312 1.93 295.092 2.83C295.872 3.67 296.262 4.69 296.262 5.89C296.322 7.03 295.992 8.08 295.272 9.04C294.612 10 293.532 10.51 292.032 10.57C288.552 10.69 284.682 10.75 280.422 10.75C280.722 17.89 280.722 29.2 280.422 44.68Z" fill="#EEEEEE"/>
</svg>
